<?xml version="1.0" standalone="no"?>
<!DOCTYPE svg PUBLIC "-//W3C//DTD SVG 20010904//EN"
 "http://www.w3.org/TR/2001/REC-SVG-20010904/DTD/svg10.dtd">
<svg version="1.0" xmlns="http://www.w3.org/2000/svg"
 width="512.000000pt" height="512.000000pt" viewBox="0 0 512.000000 512.000000"
 preserveAspectRatio="xMidYMid meet">
<metadata>
Created by potrace 1.14, written by Peter Selinger 2001-2017
</metadata>
<g transform="translate(0.000000,512.000000) scale(0.100000,-0.100000)"
fill="#000000" stroke="none">
<path d="M841 4814 c-339 -73 -637 -447 -808 -1016 -28 -93 -33 -123 -23 -126
32 -11 89 -77 114 -132 41 -91 54 -189 65 -485 18 -468 70 -704 165 -749 48
-23 121 -21 162 5 42 26 144 161 188 248 97 193 141 381 210 911 81 613 151
818 345 1010 82 82 153 127 281 178 24 10 22 11 -35 37 -257 117 -487 158
-664 119z"/>
<path d="M4016 4819 c-33 -5 -93 -18 -135 -29 -76 -21 -299 -106 -314 -119 -4
-4 23 -20 60 -36 280 -117 434 -348 517 -773 14 -71 39 -235 56 -363 68 -533
113 -728 210 -924 126 -255 244 -340 368 -265 42 26 61 57 83 142 44 168 59
297 69 603 11 316 21 397 63 489 26 56 88 126 112 126 18 0 20 -13 -14 105
-95 333 -240 608 -416 793 -199 210 -405 288 -659 251z"/>
<path d="M1586 3240 c-63 -25 -128 -88 -158 -154 -20 -46 -23 -66 -23 -196 0
-131 3 -150 24 -198 50 -110 165 -179 285 -170 107 9 187 63 235 160 30 60 31
65 31 203 0 176 -12 219 -84 291 -83 82 -201 106 -310 64z m169 -80 c70 -43
82 -132 24 -189 -58 -58 -147 -48 -189 21 -36 60 -18 131 43 168 41 25 81 25
122 0z"/>
<path d="M3302 3229 c-69 -34 -104 -71 -138 -144 -22 -45 -24 -64 -24 -196 0
-143 1 -147 31 -207 48 -97 128 -151 235 -160 120 -9 235 60 285 170 21 48 24
67 24 203 0 139 -2 153 -24 198 -78 151 -243 209 -389 136z m179 -64 c37 -20
69 -70 69 -110 0 -60 -63 -125 -120 -125 -34 0 -87 29 -106 58 -22 33 -22 102
-1 132 39 56 101 74 158 45z"/>
<path d="M2425 2175 c-154 -29 -285 -112 -335 -212 -30 -59 -33 -150 -5 -202
59 -114 307 -260 458 -269 82 -5 148 16 285 91 102 56 184 128 208 185 23 54
21 140 -6 191 -84 166 -355 262 -605 216z"/>
<path d="M2524 1110 c-17 -4 -58 -23 -91 -43 -84 -51 -143 -75 -247 -98 -148
-34 -335 -17 -472 41 l-47 20 6 -35 c28 -174 253 -391 480 -465 27 -8 50 -28
78 -65 83 -110 195 -167 329 -167 134 0 246 57 329 167 28 37 51 57 78 65 227
74 452 291 480 465 l6 35 -47 -20 c-82 -35 -158 -51 -271 -56 -167 -9 -298 24
-453 115 -73 42 -110 52 -158 41z"/>
</g>
</svg>
