<svg width="60.000000" height="60.000000" viewBox="0 0 60 60" fill="none" xmlns="http://www.w3.org/2000/svg" xmlns:xlink="http://www.w3.org/1999/xlink">
	<desc>
			Created with Pixso.
	</desc>
	<defs>
		<clipPath id="clip151_165">
			<rect width="60.000000" height="60.000000" fill="white" fill-opacity="0"/>
		</clipPath>
	</defs>
	<rect width="60.000000" height="60.000000" fill="#FFFFFF" fill-opacity="0"/>
	<g clip-path="url(#clip151_165)">
		<path d="M52.8978 25.4978L47.1429 9.74731L47.1429 1.42847C47.1429 0.639648 46.5032 0 45.7144 0L14.2858 0C13.4969 0 12.8573 0.639648 12.8573 1.42847L12.8573 9.74707L7.10214 25.4978C6.41928 27.3635 6.07039 29.335 6.07147 31.3218L6.07147 55.0764C6.07147 57.7913 8.28011 60 10.995 60L49.005 60C51.7199 60 53.9285 57.7913 53.9285 55.0764L53.9285 31.3218C53.9285 29.3291 53.5818 27.3694 52.8978 25.4978ZM15.7142 2.85718L44.2857 2.85718L44.2857 8.57153L15.7142 8.57153L15.7142 2.85718ZM51.0715 50.1321L30.9077 50.1321C30.1188 50.1321 29.4792 50.7717 29.4792 51.5605C29.4792 52.3496 30.1189 52.9893 30.9077 52.9893L51.0715 52.9893L51.0715 55.0762C51.0715 56.2156 50.1445 57.1428 49.005 57.1428L10.995 57.1428C9.85558 57.1428 8.92862 56.2158 8.92862 55.0762L8.92862 31.3218C8.92773 29.6694 9.21788 28.03 9.78574 26.4783L15.2848 11.4287L44.7152 11.4287L50.2142 26.4783C50.7821 28.03 51.0722 29.6694 51.0714 31.3218L51.0715 50.1321ZM29.5506 25.7751C32.1108 25.7751 34.1935 23.6924 34.1935 21.1323C34.1935 18.572 32.1108 16.4893 29.5506 16.4893C26.9904 16.4893 24.9077 18.572 24.9077 21.1323C24.9077 23.6924 26.9906 25.7751 29.5506 25.7751ZM29.5506 19.3464C30.5353 19.3464 31.3363 20.1475 31.3363 21.1323C31.3363 22.1169 30.5353 22.918 29.5506 22.918C28.5659 22.918 27.7649 22.1169 27.7649 21.1323C27.7649 20.1475 28.566 19.3464 29.5506 19.3464ZM39.5506 22.0132C36.9904 22.0132 34.9077 24.0959 34.9077 26.656C34.9077 29.2161 36.9906 31.2988 39.5506 31.2988C42.1107 31.2988 44.1934 29.2161 44.1934 26.656C44.1934 24.0957 42.1107 22.0132 39.5506 22.0132ZM19.5506 22.0132C22.1107 22.0132 24.1935 24.0959 24.1935 26.656C24.1935 29.2161 22.1108 31.2988 19.5506 31.2988C16.9904 31.2988 14.9078 29.2161 14.9078 26.656C14.9078 24.0959 16.9905 22.0132 19.5506 22.0132ZM39.5506 28.4419C38.5658 28.4419 37.7648 27.6409 37.7648 26.656C37.7648 25.6714 38.5659 24.8704 39.5506 24.8704C40.5353 24.8704 41.3363 25.6714 41.3363 26.656C41.3363 27.6409 40.5353 28.4419 39.5506 28.4419ZM17.7649 26.656C17.7649 27.6409 18.5659 28.4419 19.5506 28.4419C20.5352 28.4419 21.3363 27.6409 21.3363 26.656C21.3363 25.6714 20.5353 24.8704 19.5506 24.8704C18.5659 24.8704 17.7649 25.6714 17.7649 26.656ZM29.5505 28.6321C32.6078 28.6321 35.1505 30.8772 35.6169 33.8049C38.0339 34.7988 39.6152 37.2756 39.411 39.9661C39.1832 42.9639 36.7502 45.3923 33.7516 45.615C33.5974 45.6262 33.4429 45.6321 33.2891 45.6321C32.2914 45.6331 31.3085 45.3909 30.4256 44.926C29.8697 44.6326 29.2315 44.6328 28.6751 44.9258C27.6572 45.4629 26.5071 45.7012 25.349 45.6147C22.3506 45.3921 19.9175 42.9636 19.6898 39.9658C19.4857 37.2756 21.067 34.7988 23.484 33.8049C23.9504 30.8772 26.4932 28.6321 29.5505 28.6321ZM33.5402 42.7656C35.1415 42.6465 36.4405 41.3501 36.562 39.7495C36.6868 38.1062 35.5717 36.6123 33.968 36.2747C33.6423 36.2061 33.3507 36.0261 33.1436 35.7654C32.9366 35.5049 32.827 35.1802 32.834 34.8472L32.8362 34.7698C32.8362 32.9631 31.3623 31.4893 29.5505 31.4893C27.7386 31.4893 26.2648 32.9631 26.2648 34.7749L26.2671 34.8472C26.2739 35.1799 26.1643 35.5046 25.9573 35.7654C25.7503 36.0259 25.4588 36.2061 25.1331 36.2747C23.5296 36.6123 22.4143 38.1062 22.5392 39.7495C22.6606 41.3501 23.9597 42.6467 25.5608 42.7656C26.1848 42.8123 26.7999 42.6848 27.3425 42.3987C28.0231 42.0393 28.7811 41.8518 29.5506 41.8518C30.3201 41.8518 31.0781 42.0393 31.7586 42.3987C32.3013 42.6851 32.9176 42.8127 33.5402 42.7656ZM24.3465 50.1321L24.6934 50.1321C25.4824 50.1321 26.122 50.772 26.1219 51.5608C26.1219 52.3494 25.4823 52.9893 24.6934 52.9893L24.3465 52.9893C23.5577 52.9893 22.918 52.3496 22.918 51.5608C22.918 50.772 23.5576 50.1321 24.3465 50.1321Z" fill="#F1CDB3" fill-opacity="1.000000" fill-rule="evenodd"/>
	</g>
</svg>
