<svg id="medicines" width="59.999847" height="59.999756" viewBox="0 0 59.9998 59.9998" fill="none"
	xmlns="http://www.w3.org/2000/svg" xmlns:xlink="http://www.w3.org/1999/xlink">
	<desc>
		Created with Pixso.
	</desc>
	<defs />
	<rect width="59.999660" height="59.999763" transform="translate(0.000183 0.000000)" fill="#FFFFFF" fill-opacity="0" />
	<path
		d="M44.1014 0.343018L59.6564 15.8984C60.1141 16.3562 60.1141 17.0981 59.6562 17.5557L55.5138 21.6982C55.2849 21.927 54.9852 22.0415 54.6852 22.0415C54.5312 22.0417 54.3788 22.0115 54.2366 21.9526C54.0944 21.8936 53.9652 21.8071 53.8565 21.6982L48.9356 16.7773L44.2767 21.4363L51.4478 28.6072C51.6675 28.8269 51.7909 29.125 51.7909 29.4358C51.7909 29.7466 51.6675 30.0447 51.4478 30.2644L46.6895 35.0229C46.4606 35.2517 46.1608 35.3662 45.8608 35.3662C45.7069 35.3662 45.5545 35.3362 45.4123 35.2771C45.2701 35.2183 45.1409 35.1318 45.0322 35.0229L43.5209 33.5117L24.0978 52.9346C23.2332 53.7993 22.0835 54.2754 20.8607 54.2754C19.638 54.2754 18.4883 53.7993 17.6237 52.9346L16.1325 51.4434L13.3983 54.1777C13.1785 54.3975 12.8804 54.5208 12.5696 54.5208C12.2588 54.5208 11.9608 54.3975 11.741 54.1777L9.61017 52.0469L2.00049 59.6565C1.77173 59.8855 1.47174 59.9998 1.17184 59.9998C0.871948 59.9998 0.572083 59.8855 0.343201 59.6565C-0.11441 59.1987 -0.11441 58.4568 0.343201 57.999L7.95279 50.3896L5.82208 48.2588C5.71326 48.1501 5.62692 48.021 5.56802 47.8787C5.50912 47.7366 5.47882 47.5842 5.47882 47.4302C5.47882 47.2764 5.50912 47.124 5.56802 46.9817C5.62692 46.8396 5.71326 46.7104 5.82208 46.6016L8.5563 43.8674L7.06509 42.3762C5.28033 40.5911 5.28033 37.6868 7.06509 35.9021L26.488 16.4785L24.9767 14.9673C24.757 14.7473 24.6335 14.4495 24.6335 14.1387C24.6335 13.8279 24.757 13.5298 24.9767 13.3098L29.7351 8.55151C30.1929 8.09399 30.9348 8.09399 31.3925 8.55151L38.5636 15.7227L43.2225 11.0637L38.3014 6.14282C38.0817 5.92285 37.9583 5.625 37.9583 5.31421C37.9583 5.00342 38.0817 4.70532 38.3014 4.48535L42.444 0.343018C42.902 -0.114258 43.6438 -0.114258 44.1014 0.343018ZM40.7875 5.31421L54.6855 19.2124L57.1707 16.7271L43.2727 2.8291L40.7875 5.31421ZM45.8608 32.5369L48.9619 29.4358L30.5638 11.0378L27.4627 14.1389L45.8608 32.5369ZM40.2208 17.3801L42.6195 19.7788L47.2784 15.1199L44.8797 12.7212L40.2208 17.3801ZM30.1576 26.9678L24.7358 21.5459L22.7859 23.4956L32.8747 33.5845L38.234 28.2251L28.1454 18.1365L26.3931 19.8887L31.8148 25.3105C32.2725 25.7681 32.2725 26.5103 31.8148 26.9678C31.586 27.1965 31.2862 27.311 30.9862 27.311C30.8323 27.3113 30.6798 27.281 30.5377 27.2222C30.3954 27.1631 30.2663 27.0767 30.1576 26.9678ZM19.2811 51.2773C20.152 52.1484 21.5694 52.1482 22.4403 51.2773L34.8459 38.8708L32.8741 36.8992L25.2533 44.52C25.0245 44.7488 24.7245 44.8633 24.4247 44.8633C24.1248 44.8633 23.8249 44.7488 23.596 44.52C23.1384 44.0623 23.1384 43.3203 23.596 42.8625L31.2169 35.2417L21.1281 25.1531L19.2205 27.0605L22.1061 29.9463C22.5637 30.4041 22.5637 31.146 22.1061 31.6035C21.8773 31.8325 21.5774 31.9468 21.2775 31.9468C20.9776 31.9468 20.6777 31.8325 20.4489 31.6035L17.5632 28.718L15.6346 30.6467L21.0563 36.0684C21.5139 36.5261 21.5139 37.2681 21.0563 37.7256C20.8276 37.9543 20.5276 38.0688 20.2277 38.0688C19.9278 38.0688 19.6279 37.9546 19.3991 37.7256L13.9774 32.304L12.0488 34.2327L14.9344 37.1184C15.3921 37.5762 15.3921 38.3181 14.9344 38.7756C14.7057 39.0046 14.4057 39.1189 14.1058 39.1189C13.8059 39.1189 13.5061 39.0046 13.2772 38.7756L10.3916 35.8901L8.72235 37.5593C7.85129 38.4302 7.85129 39.8477 8.72235 40.7188L19.2811 51.2773ZM34.5323 35.2417L36.5041 37.2136L41.8634 31.854L39.8917 29.8823L34.5323 35.2417ZM8.30798 47.4302L12.5696 51.6917L14.4751 49.7861L10.2137 45.5247L8.30798 47.4302ZM22.2488 46.5015C22.2781 46.5718 22.3016 46.6458 22.3156 46.7207C22.3309 46.7957 22.3391 46.873 22.3391 46.9492C22.3391 47.0254 22.3309 47.1028 22.3156 47.179C22.3016 47.2527 22.2781 47.3267 22.2488 47.3979C22.2195 47.4683 22.1832 47.5364 22.141 47.5996C22.0988 47.6641 22.0496 47.7239 21.9957 47.7778C21.887 47.887 21.7575 47.9736 21.6148 48.032C21.4731 48.0913 21.3209 48.1216 21.1672 48.1211C21.0135 48.1216 20.8613 48.0913 20.7195 48.032C20.5769 47.9736 20.4474 47.887 20.3387 47.7778C20.2848 47.7239 20.2355 47.6641 20.1934 47.5996C20.1512 47.5364 20.1148 47.4683 20.0855 47.3979C20.0562 47.3267 20.0328 47.2527 20.0187 47.179C20.0035 47.1028 19.9953 47.0254 19.9953 46.9492C19.9953 46.873 20.0035 46.7957 20.0187 46.7207C20.0328 46.6458 20.0562 46.5718 20.0855 46.5015C20.1148 46.4302 20.1512 46.3621 20.1934 46.2988C20.2355 46.2344 20.2848 46.1746 20.3387 46.1206C20.3926 46.0669 20.4523 46.0176 20.5168 45.9753C20.5801 45.9331 20.648 45.897 20.7195 45.8677C20.7899 45.8384 20.8637 45.8159 20.9387 45.8008C21.0895 45.7703 21.2449 45.7703 21.3957 45.8008C21.4707 45.8159 21.5445 45.8384 21.6148 45.8677C21.6858 45.8967 21.7538 45.9329 21.8176 45.9753C21.882 46.0176 21.9418 46.0669 21.9957 46.1206C22.0496 46.1746 22.0988 46.2344 22.141 46.2988C22.1836 46.3628 22.2197 46.4307 22.2488 46.5015Z"
		fill="#F1CDB3" fill-opacity="1.000000" fill-rule="evenodd" />
</svg>